<svg width="32" height="32" viewBox="0 0 32 32" fill="none" xmlns="http://www.w3.org/2000/svg">
<path fill-rule="evenodd" clip-rule="evenodd" d="M16 2C18.7689 2 21.4757 2.82109 23.778 4.35943C26.0803 5.89777 27.8747 8.08427 28.9343 10.6424C29.9939 13.2006 30.2712 16.0155 29.731 18.7313C29.1908 21.447 27.8574 23.9416 25.8995 25.8995C23.9416 27.8574 21.447 29.1908 18.7313 29.731C16.0155 30.2712 13.2006 29.9939 10.6424 28.9343C8.08427 27.8747 5.89777 26.0803 4.35943 23.778C2.82109 21.4757 2 18.7689 2 16C2 12.287 3.475 8.72601 6.1005 6.1005C8.72601 3.475 12.287 2 16 2V2ZM23.58 10.76C23.3815 10.2243 23.0666 9.73931 22.658 9.34C22.2614 8.93098 21.7778 8.61653 21.243 8.42C20.6226 8.18287 19.9651 8.05759 19.301 8.05C18.448 8.01 18.176 8 16.001 8C13.826 8 13.552 8 12.701 8.05C12.0371 8.05695 11.3799 8.18224 10.76 8.42C10.2248 8.61628 9.74081 8.93075 9.344 9.34C8.93539 9.73909 8.62078 10.2242 8.423 10.76C8.18873 11.3805 8.06322 12.0368 8.052 12.7C8.015 13.55 8.003 13.82 8.003 16C8.003 18.18 8.009 18.45 8.052 19.3C8.06429 19.9631 8.18976 20.6192 8.423 21.24C8.62319 21.7746 8.93748 22.2592 9.344 22.66C9.74615 23.0627 10.2286 23.3762 10.76 23.58C11.3814 23.8124 12.0377 23.9375 12.701 23.95C13.554 23.99 13.827 24 16.001 24C18.175 24 18.449 23.99 19.301 23.95C19.9647 23.9381 20.6214 23.813 21.243 23.58C21.7739 23.3759 22.256 23.0624 22.658 22.66C23.0645 22.259 23.3791 21.7745 23.58 21.24C23.8124 20.619 23.9375 19.963 23.95 19.3C23.988 18.45 24 18.17 24 16C24 13.83 23.994 13.55 23.95 12.7C23.9396 12.0368 23.8144 11.3805 23.58 10.76ZM22.51 19.23C22.5051 19.7358 22.411 20.2369 22.232 20.71C22.105 21.0614 21.8999 21.3794 21.632 21.64C21.3706 21.9025 21.0568 22.107 20.711 22.24C20.236 22.4163 19.7337 22.5077 19.227 22.51C18.38 22.55 18.133 22.56 15.994 22.56C13.855 22.56 13.601 22.56 12.76 22.51C12.2533 22.5084 11.7508 22.4169 11.276 22.24C10.931 22.1055 10.6174 21.9013 10.355 21.64C10.0891 21.3778 9.88424 21.0603 9.755 20.71C9.57712 20.2365 9.48304 19.7357 9.477 19.23C9.44 18.38 9.428 18.13 9.428 16C9.428 13.87 9.434 13.61 9.477 12.76C9.48423 12.2544 9.57826 11.7538 9.755 11.28C9.88898 10.9349 10.0934 10.6214 10.3553 10.3597C10.6172 10.098 10.9308 9.89376 11.276 9.76C11.7514 9.58398 12.2531 9.48932 12.76 9.48C13.607 9.44 13.86 9.43 15.994 9.43C18.128 9.43 18.386 9.44 19.227 9.48C19.734 9.48849 20.2358 9.58318 20.711 9.76C21.0598 9.88696 21.3749 10.0922 21.632 10.36C21.8977 10.6184 22.1027 10.9326 22.232 11.28C22.4087 11.7538 22.5028 12.2544 22.51 12.76C22.547 13.61 22.559 13.86 22.559 16C22.559 18.14 22.547 18.39 22.51 19.23ZM15.994 11.89C15.1812 11.8902 14.3866 12.1314 13.7109 12.5831C13.0351 13.0349 12.5085 13.6768 12.1976 14.4279C11.8866 15.1789 11.8054 16.0052 11.9641 16.8024C12.1228 17.5996 12.5143 18.3319 13.0891 18.9066C13.664 19.4813 14.3963 19.8726 15.1935 20.0311C15.9908 20.1896 16.8171 20.1082 17.5681 19.797C18.319 19.4859 18.9608 18.9592 19.4124 18.2833C19.864 17.6074 20.105 16.8128 20.105 16C20.1045 14.9099 19.6711 13.8647 18.9003 13.094C18.1294 12.3233 17.0841 11.8903 15.994 11.89ZM15.994 18.67C15.4659 18.67 14.9497 18.5134 14.5106 18.22C14.0715 17.9266 13.7293 17.5096 13.5272 17.0218C13.3252 16.5339 13.2723 15.997 13.3753 15.4791C13.4783 14.9612 13.7326 14.4854 14.106 14.112C14.4794 13.7386 14.9552 13.4843 15.4731 13.3813C15.991 13.2783 16.5279 13.3312 17.0158 13.5332C17.5036 13.7353 17.9206 14.0775 18.214 14.5166C18.5074 14.9557 18.664 15.4719 18.664 16C18.6627 16.7077 18.381 17.3861 17.8805 17.8865C17.3801 18.387 16.7017 18.6687 15.994 18.67ZM20.266 10.77C20.4545 10.7708 20.6385 10.8273 20.795 10.9325C20.9514 11.0377 21.0731 11.1869 21.145 11.3612C21.2168 11.5354 21.2354 11.7271 21.1985 11.9119C21.1616 12.0968 21.0708 12.2666 20.9376 12.3999C20.8044 12.5333 20.6347 12.6242 20.4499 12.6613C20.2651 12.6984 20.0734 12.68 19.8991 12.6083C19.7247 12.5367 19.5755 12.4151 19.4701 12.2588C19.3647 12.1025 19.308 11.9185 19.307 11.73C19.3069 11.604 19.3316 11.4792 19.3797 11.3627C19.4278 11.2462 19.4985 11.1404 19.5875 11.0512C19.6766 10.9621 19.7824 10.8914 19.8988 10.8431C20.0152 10.7948 20.14 10.77 20.266 10.77Z" fill="white"/>
<path fill-rule="evenodd" clip-rule="evenodd" d="M16 2C18.7689 2 21.4757 2.82109 23.778 4.35943C26.0803 5.89777 27.8747 8.08427 28.9343 10.6424C29.9939 13.2006 30.2712 16.0155 29.731 18.7313C29.1908 21.447 27.8574 23.9416 25.8995 25.8995C23.9416 27.8574 21.447 29.1908 18.7313 29.731C16.0155 30.2712 13.2006 29.9939 10.6424 28.9343C8.08427 27.8747 5.89777 26.0803 4.35943 23.778C2.82109 21.4757 2 18.7689 2 16C2 12.287 3.475 8.72601 6.1005 6.1005C8.72601 3.475 12.287 2 16 2V2ZM23.58 10.76C23.3815 10.2243 23.0666 9.73931 22.658 9.34C22.2614 8.93098 21.7778 8.61653 21.243 8.42C20.6226 8.18287 19.9651 8.05759 19.301 8.05C18.448 8.01 18.176 8 16.001 8C13.826 8 13.552 8 12.701 8.05C12.0371 8.05695 11.3799 8.18224 10.76 8.42C10.2248 8.61628 9.74081 8.93075 9.344 9.34C8.93539 9.73909 8.62078 10.2242 8.423 10.76C8.18873 11.3805 8.06322 12.0368 8.052 12.7C8.015 13.55 8.003 13.82 8.003 16C8.003 18.18 8.009 18.45 8.052 19.3C8.06429 19.9631 8.18976 20.6192 8.423 21.24C8.62319 21.7746 8.93748 22.2592 9.344 22.66C9.74615 23.0627 10.2286 23.3762 10.76 23.58C11.3814 23.8124 12.0377 23.9375 12.701 23.95C13.554 23.99 13.827 24 16.001 24C18.175 24 18.449 23.99 19.301 23.95C19.9647 23.9381 20.6214 23.813 21.243 23.58C21.7739 23.3759 22.256 23.0624 22.658 22.66C23.0645 22.259 23.3791 21.7745 23.58 21.24C23.8124 20.619 23.9375 19.963 23.95 19.3C23.988 18.45 24 18.17 24 16C24 13.83 23.994 13.55 23.95 12.7C23.9396 12.0368 23.8144 11.3805 23.58 10.76ZM22.51 19.23C22.5051 19.7358 22.411 20.2369 22.232 20.71C22.105 21.0614 21.8999 21.3794 21.632 21.64C21.3706 21.9025 21.0568 22.107 20.711 22.24C20.236 22.4163 19.7337 22.5077 19.227 22.51C18.38 22.55 18.133 22.56 15.994 22.56C13.855 22.56 13.601 22.56 12.76 22.51C12.2533 22.5084 11.7508 22.4169 11.276 22.24C10.931 22.1055 10.6174 21.9013 10.355 21.64C10.0891 21.3778 9.88424 21.0603 9.755 20.71C9.57712 20.2365 9.48304 19.7357 9.477 19.23C9.44 18.38 9.428 18.13 9.428 16C9.428 13.87 9.434 13.61 9.477 12.76C9.48423 12.2544 9.57826 11.7538 9.755 11.28C9.88898 10.9349 10.0934 10.6214 10.3553 10.3597C10.6172 10.098 10.9308 9.89376 11.276 9.76C11.7514 9.58398 12.2531 9.48932 12.76 9.48C13.607 9.44 13.86 9.43 15.994 9.43C18.128 9.43 18.386 9.44 19.227 9.48C19.734 9.48849 20.2358 9.58318 20.711 9.76C21.0598 9.88696 21.3749 10.0922 21.632 10.36C21.8977 10.6184 22.1027 10.9326 22.232 11.28C22.4087 11.7538 22.5028 12.2544 22.51 12.76C22.547 13.61 22.559 13.86 22.559 16C22.559 18.14 22.547 18.39 22.51 19.23ZM15.994 11.89C15.1812 11.8902 14.3866 12.1314 13.7109 12.5831C13.0351 13.0349 12.5085 13.6768 12.1976 14.4279C11.8866 15.1789 11.8054 16.0052 11.9641 16.8024C12.1228 17.5996 12.5143 18.3319 13.0891 18.9066C13.664 19.4813 14.3963 19.8726 15.1935 20.0311C15.9908 20.1896 16.8171 20.1082 17.5681 19.797C18.319 19.4859 18.9608 18.9592 19.4124 18.2833C19.864 17.6074 20.105 16.8128 20.105 16C20.1045 14.9099 19.6711 13.8647 18.9003 13.094C18.1294 12.3233 17.0841 11.8903 15.994 11.89ZM15.994 18.67C15.4659 18.67 14.9497 18.5134 14.5106 18.22C14.0715 17.9266 13.7293 17.5096 13.5272 17.0218C13.3252 16.5339 13.2723 15.997 13.3753 15.4791C13.4783 14.9612 13.7326 14.4854 14.106 14.112C14.4794 13.7386 14.9552 13.4843 15.4731 13.3813C15.991 13.2783 16.5279 13.3312 17.0158 13.5332C17.5036 13.7353 17.9206 14.0775 18.214 14.5166C18.5074 14.9557 18.664 15.4719 18.664 16C18.6627 16.7077 18.381 17.3861 17.8805 17.8865C17.3801 18.387 16.7017 18.6687 15.994 18.67ZM20.266 10.77C20.4545 10.7708 20.6385 10.8273 20.795 10.9325C20.9514 11.0377 21.0731 11.1869 21.145 11.3612C21.2168 11.5354 21.2354 11.7271 21.1985 11.9119C21.1616 12.0968 21.0708 12.2666 20.9376 12.3999C20.8044 12.5333 20.6347 12.6242 20.4499 12.6613C20.2651 12.6984 20.0734 12.68 19.8991 12.6083C19.7247 12.5367 19.5755 12.4151 19.4701 12.2588C19.3647 12.1025 19.308 11.9185 19.307 11.73C19.3069 11.604 19.3316 11.4792 19.3797 11.3627C19.4278 11.2462 19.4985 11.1404 19.5875 11.0512C19.6766 10.9621 19.7824 10.8914 19.8988 10.8431C20.0152 10.7948 20.14 10.77 20.266 10.77Z" fill="black" fill-opacity="0.4"/>
</svg>
