<svg width="32" height="32" viewBox="0 0 32 32" fill="none" xmlns="http://www.w3.org/2000/svg">
<path fill-rule="evenodd" clip-rule="evenodd" d="M16 2C18.7689 2 21.4757 2.82109 23.778 4.35943C26.0803 5.89777 27.8747 8.08427 28.9343 10.6424C29.9939 13.2006 30.2712 16.0155 29.731 18.7313C29.1908 21.447 27.8574 23.9416 25.8995 25.8995C23.9416 27.8574 21.447 29.1908 18.7313 29.731C16.0155 30.2712 13.2006 29.9939 10.6424 28.9343C8.08427 27.8747 5.89777 26.0803 4.35943 23.778C2.82109 21.4757 2 18.7689 2 16C2 12.287 3.475 8.72601 6.1005 6.1005C8.72601 3.475 12.287 2 16 2V2ZM21.186 17.14C21.355 16.83 21.953 15.93 22.403 15.25C23.754 13.27 24.003 12.85 24.003 12.6C24.0022 12.5071 23.9648 12.4182 23.8989 12.3527C23.833 12.2872 23.7439 12.2503 23.651 12.25H20.486C20.4035 12.2498 20.3236 12.2788 20.2604 12.3318C20.1973 12.3849 20.1549 12.4587 20.141 12.54C19.4609 14.0079 18.5057 15.3318 17.327 16.44C17.1751 16.3161 17.0614 16.1518 16.9991 15.9659C16.9368 15.7801 16.9284 15.5804 16.975 15.39V12.45C16.9944 12.3359 16.9895 12.219 16.9606 12.107C16.9316 11.995 16.8793 11.8904 16.807 11.8C16.567 11.55 16.207 11.55 15.207 11.55C13.392 11.55 12.745 12.09 12.745 12.6C12.7378 12.6854 12.7647 12.7701 12.8198 12.8357C12.8749 12.9013 12.9537 12.9424 13.039 12.95H13.061C13.061 12.95 13.448 13.2 13.448 14.7C13.4676 15.2815 13.4371 15.8637 13.357 16.44C12.463 16.28 11.225 14.07 10.634 12.47C10.6061 12.401 10.5572 12.3426 10.4942 12.3031C10.4311 12.2636 10.3572 12.245 10.283 12.25H7.469C7.37673 12.2486 7.28759 12.2835 7.22067 12.347C7.15376 12.4106 7.11439 12.4978 7.111 12.59C7.11056 12.6135 7.11257 12.6369 7.117 12.66C7.511 14.77 11.978 21.33 14.855 21.33H16.262C17.008 21.33 17.062 20.53 17.106 20C17.15 19.47 17.183 19.24 17.317 19.24C18.043 19.5122 18.6973 19.9465 19.23 20.51C19.5644 20.8933 19.9979 21.177 20.483 21.33H22.241C23.149 21.33 24 21.33 24 20.63C24 20.37 23.768 20.06 22.431 18.54C22.0063 18.0821 21.5912 17.6153 21.186 17.14Z" fill="black" fill-opacity="0.4"/>
</svg>
