<svg width="32" height="32" viewBox="0 0 32 32" fill="none" xmlns="http://www.w3.org/2000/svg">
<path fill-rule="evenodd" clip-rule="evenodd" d="M16 2C18.7689 2 21.4757 2.82109 23.778 4.35943C26.0803 5.89777 27.8747 8.08427 28.9343 10.6424C29.9939 13.2006 30.2712 16.0155 29.731 18.7313C29.1908 21.447 27.8574 23.9416 25.8995 25.8995C23.9416 27.8574 21.447 29.1908 18.7313 29.731C16.0155 30.2712 13.2006 29.9939 10.6424 28.9343C8.08427 27.8747 5.89777 26.0803 4.35943 23.778C2.82109 21.4757 2 18.7689 2 16C2 12.287 3.475 8.72601 6.1005 6.1005C8.72601 3.475 12.287 2 16 2V2ZM22.855 13.16C22.7892 12.6512 22.5981 12.1668 22.299 11.75C21.9297 11.3732 21.4265 11.1575 20.899 11.15C18.941 11.01 15.999 11.01 15.999 11.01H15.993C15.993 11.01 13.055 11.01 11.093 11.15C10.5653 11.1569 10.0619 11.3726 9.693 11.75C9.39348 12.1666 9.2024 12.6511 9.137 13.16C9.04984 13.9237 9.00311 14.6914 8.997 15.46V16.54C9.00311 17.3086 9.04984 18.0763 9.137 18.84C9.2024 19.3489 9.39348 19.8334 9.693 20.25C10.1155 20.6351 10.6644 20.8521 11.236 20.86C12.356 20.97 15.994 21 15.994 21C15.994 21 18.935 20.99 20.894 20.85C21.1557 20.8489 21.4144 20.7953 21.6549 20.6922C21.8954 20.5891 22.1128 20.4387 22.294 20.25C22.5931 19.8332 22.7842 19.3488 22.85 18.84C22.9372 18.0763 22.9839 17.3086 22.99 16.54V15.46C22.9855 14.6915 22.9405 13.9238 22.855 13.16ZM14.555 17.85V13.85L18.336 15.86L14.555 17.85Z" fill="black" fill-opacity="0.4"/>
</svg>
